<?xml version="1.0" encoding="utf-8"?>
<!-- Generator: Adobe Illustrator 26.5.0, SVG Export Plug-In . SVG Version: 6.00 Build 0)  -->
<svg version="1.1" id="Layer_1" xmlns="http://www.w3.org/2000/svg" xmlns:xlink="http://www.w3.org/1999/xlink" x="0px" y="0px"
	 viewBox="0 0 297 391" style="enable-background:new 0 0 297 391;" xml:space="preserve">
<style type="text/css">
	.st0{fill:#DAA573;}
	.st1{fill:#FFFFFF;}
	.st2{fill:#D67F53;}
	.st3{fill:#EF4056;}
	.st4{fill:#97263C;}
</style>
<g>
	<g>
		<polygon class="st0" points="148.5,32.13 168.55,17.76 154.17,37.8 168.55,57.85 148.5,43.47 128.45,57.85 142.83,37.8 
			128.45,17.76 		"/>
		<polygon class="st1" points="152.51,33.79 176.85,37.8 152.51,41.81 148.5,77.49 144.49,41.81 120.15,37.8 144.49,33.79 
			148.5,0.95 		"/>
	</g>
	<g>
		<polygon class="st2" points="295.46,390.05 148.51,71.64 1.54,390.05 		"/>
		<polygon class="st0" points="281.93,360.73 259.47,312.06 37.53,312.06 15.07,360.73 		"/>
		<polygon class="st0" points="64.29,254.09 41.82,302.76 255.18,302.76 232.71,254.09 		"/>
		<polygon class="st0" points="91.04,196.12 68.58,244.8 228.42,244.8 205.96,196.12 		"/>
		<polygon class="st0" points="95.33,186.83 201.67,186.83 179.2,138.16 117.8,138.16 		"/>
		<polygon class="st0" points="10.78,370.03 2.18,388.66 148.5,388.66 294.82,388.66 286.22,370.03 		"/>
		<polygon class="st0" points="174.91,128.86 148.5,71.64 122.09,128.86 		"/>
	</g>
	<g>
		
			<ellipse transform="matrix(0.9239 -0.3827 0.3827 0.9239 -78.7351 46.9511)" class="st3" cx="78.65" cy="221.39" rx="8.8" ry="8.8"/>
		
			<ellipse transform="matrix(0.2298 -0.9732 0.9732 0.2298 -127.9859 281.0628)" class="st3" cx="113.58" cy="221.39" rx="8.8" ry="8.8"/>
		
			<ellipse transform="matrix(0.7071 -0.7071 0.7071 0.7071 -113.0517 169.849)" class="st3" cx="148.5" cy="221.39" rx="8.8" ry="8.8"/>
		
			<ellipse transform="matrix(0.9239 -0.3827 0.3827 0.9239 -70.7599 87.0455)" class="st3" cx="183.42" cy="221.39" rx="8.8" ry="8.8"/>
		
			<ellipse transform="matrix(0.2298 -0.9732 0.9732 0.2298 -47.2855 383.032)" class="st3" cx="218.35" cy="221.39" rx="8.8" ry="8.8"/>
	</g>
	<path class="st1" d="M111.91,159.77l6.95,2.72l-6.95,2.72c-1.07,0.42-1.88,1.32-2.19,2.43l-3.23,11.57l-3.23-11.57
		c-0.31-1.11-1.12-2.01-2.19-2.43l-6.95-2.72l6.95-2.72c1.07-0.42,1.88-1.32,2.19-2.43l3.23-11.57l3.23,11.57
		C110.03,158.45,110.84,159.35,111.91,159.77z"/>
	<path class="st1" d="M139.09,159.77l6.95,2.72l-6.95,2.72c-1.07,0.42-1.88,1.32-2.19,2.43l-3.23,11.57l-3.23-11.57
		c-0.31-1.11-1.12-2.01-2.19-2.43l-6.95-2.72l6.95-2.72c1.07-0.42,1.88-1.32,2.19-2.43l3.23-11.57l3.23,11.57
		C137.21,158.45,138.02,159.35,139.09,159.77z"/>
	<path class="st1" d="M166.04,159.77l6.95,2.72l-6.95,2.72c-1.07,0.42-1.88,1.32-2.19,2.43l-3.23,11.57l-3.23-11.57
		c-0.31-1.11-1.12-2.01-2.19-2.43l-6.95-2.72l6.95-2.72c1.07-0.42,1.88-1.32,2.19-2.43l3.23-11.57l3.23,11.57
		C164.16,158.45,164.97,159.35,166.04,159.77z"/>
	<path class="st1" d="M192.99,159.77l6.95,2.72l-6.95,2.72c-1.07,0.42-1.88,1.32-2.19,2.43l-3.23,11.57l-3.23-11.57
		c-0.31-1.11-1.12-2.01-2.19-2.43l-6.95-2.72l6.95-2.72c1.07-0.42,1.88-1.32,2.19-2.43l3.23-11.57l3.23,11.57
		C191.11,158.45,191.92,159.35,192.99,159.77z"/>
	<g>
		<path class="st3" d="M38.59,323.08l0.68-2.28c0,0-1.78-1.49-5.7-1.49s-5.7,1.49-5.7,1.49l0.68,2.28c0,0-4.11,1.6-3.32,5.11
			c0.33,1.45,2.69,14.66,5.96,23.22c0.84,2.2,3.91,2.2,4.75,0c3.27-8.56,5.63-21.77,5.96-23.22
			C42.7,324.69,38.59,323.08,38.59,323.08z"/>
		<path class="st3" d="M96.05,323.08l0.68-2.28c0,0-1.78-1.49-5.7-1.49c-3.92,0-5.7,1.49-5.7,1.49l0.68,2.28c0,0-4.11,1.6-3.32,5.11
			c0.33,1.45,2.69,14.66,5.96,23.22c0.84,2.2,3.91,2.2,4.75,0c3.27-8.56,5.63-21.77,5.96-23.22
			C100.16,324.69,96.05,323.08,96.05,323.08z"/>
		<path class="st3" d="M57.28,349.29l-0.68,2.28c0,0,1.78,1.49,5.7,1.49s5.7-1.49,5.7-1.49l-0.68-2.28c0,0,4.11-1.6,3.32-5.11
			c-0.33-1.45-2.69-14.66-5.96-23.22c-0.84-2.2-3.91-2.2-4.75,0c-3.27,8.56-5.63,21.77-5.96,23.22
			C53.17,347.69,57.28,349.29,57.28,349.29z"/>
		<path class="st3" d="M153.52,323.08l0.68-2.28c0,0-1.78-1.49-5.7-1.49s-5.7,1.49-5.7,1.49l0.68,2.28c0,0-4.11,1.6-3.32,5.11
			c0.33,1.45,2.69,14.66,5.96,23.22c0.84,2.2,3.91,2.2,4.75,0c3.27-8.56,5.63-21.77,5.96-23.22
			C157.63,324.69,153.52,323.08,153.52,323.08z"/>
		<path class="st3" d="M210.99,323.08l0.68-2.28c0,0-1.78-1.49-5.7-1.49s-5.7,1.49-5.7,1.49l0.68,2.28c0,0-4.11,1.6-3.32,5.11
			c0.33,1.45,2.69,14.66,5.96,23.22c0.84,2.2,3.91,2.2,4.75,0c3.27-8.56,5.63-21.77,5.96-23.22
			C215.1,324.69,210.99,323.08,210.99,323.08z"/>
		<path class="st3" d="M268.45,323.08l0.68-2.28c0,0-1.78-1.49-5.7-1.49c-3.92,0-5.7,1.49-5.7,1.49l0.68,2.28
			c0,0-4.11,1.6-3.32,5.11c0.33,1.45,2.69,14.66,5.96,23.22c0.84,2.2,3.91,2.2,4.75,0c3.27-8.56,5.63-21.77,5.96-23.22
			C272.56,324.69,268.45,323.08,268.45,323.08z"/>
		<path class="st3" d="M114.75,349.29l-0.68,2.28c0,0,1.78,1.49,5.7,1.49s5.7-1.49,5.7-1.49l-0.68-2.28c0,0,4.11-1.6,3.32-5.11
			c-0.33-1.45-2.69-14.66-5.96-23.22c-0.84-2.2-3.91-2.2-4.75,0c-3.27,8.56-5.63,21.77-5.96,23.22
			C110.64,347.69,114.75,349.29,114.75,349.29z"/>
		<path class="st3" d="M172.21,349.29l-0.68,2.28c0,0,1.78,1.49,5.7,1.49s5.7-1.49,5.7-1.49l-0.68-2.28c0,0,4.11-1.6,3.32-5.11
			c-0.33-1.45-2.69-14.66-5.96-23.22c-0.84-2.2-3.91-2.2-4.75,0c-3.27,8.56-5.63,21.77-5.96,23.22
			C168.1,347.69,172.21,349.29,172.21,349.29z"/>
		<path class="st3" d="M229.68,349.29l-0.68,2.28c0,0,1.78,1.49,5.7,1.49s5.7-1.49,5.7-1.49l-0.68-2.28c0,0,4.11-1.6,3.32-5.11
			c-0.33-1.45-2.69-14.66-5.96-23.22c-0.84-2.2-3.91-2.2-4.75,0c-3.27,8.56-5.63,21.77-5.96,23.22
			C225.57,347.69,229.68,349.29,229.68,349.29z"/>
	</g>
	<g>
		<path class="st4" d="M50.28,270.94c-2.15-1.94-2.33-4.54-2.34-5.21l0,0.04v-0.04c-0.01,0.67-0.19,3.27-2.34,5.21
			c-2.48,2.24-10.28,2.06-10.28,7.49c0,5.43,7.8,5.25,10.28,7.49c1.5,1.35,2.02,3,2.21,4.12l0.06,0.69l0.02-0.25
			c0.03,0.27,0.05,0.52,0.05,0.66l0-1.48l0-0.04l0,1.52c0.01-0.67,0.19-3.27,2.34-5.21c2.48-2.24,10.28-2.06,10.28-7.49
			C60.55,272.99,52.76,273.18,50.28,270.94z"/>
		<path class="st4" d="M79.01,270.94c-2.15-1.94-2.33-4.54-2.34-5.21l0,0.04v-0.04c-0.01,0.67-0.19,3.27-2.34,5.21
			c-2.48,2.24-10.28,2.06-10.28,7.49c0,5.43,7.8,5.25,10.28,7.49c1.5,1.35,2.02,3,2.21,4.12l0.06,0.69l0.02-0.25
			c0.03,0.27,0.05,0.52,0.05,0.66l0-1.48l0-0.04l0,1.52c0.01-0.67,0.19-3.27,2.34-5.21c2.48-2.24,10.28-2.06,10.28-7.49
			C89.29,272.99,81.49,273.18,79.01,270.94z"/>
		<path class="st4" d="M107.74,270.94c-2.15-1.94-2.33-4.54-2.34-5.21l0,0.04v-0.04c-0.01,0.67-0.19,3.27-2.34,5.21
			c-2.48,2.24-10.28,2.06-10.28,7.49c0,5.43,7.8,5.25,10.28,7.49c1.5,1.35,2.02,3,2.21,4.12l0.06,0.69l0.02-0.25
			c0.03,0.27,0.05,0.52,0.05,0.66l0-1.48l0-0.04l0,1.52c0.01-0.67,0.19-3.27,2.34-5.21c2.48-2.24,10.28-2.06,10.28-7.49
			C118.02,272.99,110.22,273.18,107.74,270.94z"/>
		<path class="st4" d="M136.47,270.94c-2.15-1.94-2.33-4.54-2.34-5.21l0,0.04v-0.04c-0.01,0.67-0.19,3.27-2.34,5.21
			c-2.48,2.24-10.28,2.06-10.28,7.49c0,5.43,7.8,5.25,10.28,7.49c1.5,1.35,2.02,3,2.21,4.12l0.06,0.69l0.02-0.25
			c0.03,0.27,0.05,0.52,0.05,0.66l0-1.48l0-0.04l0,1.52c0.01-0.67,0.19-3.27,2.34-5.21c2.48-2.24,10.28-2.06,10.28-7.49
			C146.75,272.99,138.95,273.18,136.47,270.94z"/>
		<path class="st4" d="M165.21,270.94c-2.15-1.94-2.33-4.54-2.34-5.21l0,0.04v-0.04c-0.01,0.67-0.19,3.27-2.34,5.21
			c-2.48,2.24-10.28,2.06-10.28,7.49c0,5.43,7.8,5.25,10.28,7.49c1.5,1.35,2.02,3,2.21,4.12l0.06,0.69l0.02-0.25
			c0.03,0.27,0.05,0.52,0.05,0.66l0-1.48l0-0.04l0,1.52c0.01-0.67,0.19-3.27,2.34-5.21c2.48-2.24,10.28-2.06,10.28-7.49
			C175.48,272.99,167.69,273.18,165.21,270.94z"/>
		<path class="st4" d="M193.94,270.94c-2.15-1.94-2.33-4.54-2.34-5.21l0,0.04v-0.04c-0.01,0.67-0.19,3.27-2.34,5.21
			c-2.48,2.24-10.28,2.06-10.28,7.49c0,5.43,7.8,5.25,10.28,7.49c1.5,1.35,2.02,3,2.21,4.12l0.06,0.69l0.02-0.25
			c0.03,0.27,0.05,0.52,0.05,0.66l0-1.48l0-0.04l0,1.52c0.01-0.67,0.19-3.27,2.34-5.21c2.48-2.24,10.28-2.06,10.28-7.49
			C204.22,272.99,196.42,273.18,193.94,270.94z"/>
		<path class="st4" d="M222.67,270.94c-2.15-1.94-2.33-4.54-2.34-5.21l0,0.04v-0.04c-0.01,0.67-0.19,3.27-2.34,5.21
			c-2.48,2.24-10.28,2.06-10.28,7.49c0,5.43,7.8,5.25,10.28,7.49c1.5,1.35,2.02,3,2.21,4.12l0.06,0.69l0.02-0.25
			c0.03,0.27,0.05,0.52,0.05,0.66l0-1.48l0-0.04l0,1.52c0.01-0.67,0.19-3.27,2.34-5.21c2.48-2.24,10.28-2.06,10.28-7.49
			C232.95,272.99,225.15,273.18,222.67,270.94z"/>
		<path class="st4" d="M251.41,270.94c-2.15-1.94-2.33-4.54-2.34-5.21l0,0.04v-0.04c-0.01,0.67-0.19,3.27-2.34,5.21
			c-2.48,2.24-10.28,2.06-10.28,7.49c0,5.43,7.8,5.25,10.28,7.49c1.5,1.35,2.02,3,2.21,4.12l0.06,0.69l0.02-0.25
			c0.03,0.27,0.05,0.52,0.05,0.66l0-1.48l0-0.04l0,1.52c0.01-0.67,0.19-3.27,2.34-5.21c2.48-2.24,10.28-2.06,10.28-7.49
			C261.68,272.99,253.89,273.18,251.41,270.94z"/>
	</g>
</g>
</svg>
