<?xml version="1.0" encoding="utf-8"?>
<!-- Generator: Adobe Illustrator 26.5.0, SVG Export Plug-In . SVG Version: 6.00 Build 0)  -->
<svg version="1.1" id="Layer_1" xmlns="http://www.w3.org/2000/svg" xmlns:xlink="http://www.w3.org/1999/xlink" x="0px" y="0px"
	 viewBox="0 0 300 708.5" style="enable-background:new 0 0 300 708.5;" xml:space="preserve">
<style type="text/css">
	.st0{clip-path:url(#SVGID_00000113341510991879657390000010705761485585772174_);}
	.st1{fill:#E7344C;}
	.st2{fill:#992132;}
	.st3{fill:#FFFFFF;}
	.st4{fill:#C6C6C5;}
	.st5{fill:#DFAA72;}
	.st6{fill:#C17E54;}
	.st7{fill:#ECECEC;}
	.st8{fill:#1D1D1B;stroke:#1D1D1B;stroke-width:0.971;stroke-miterlimit:10;}
	.st9{fill:#73202C;}
</style>
<g>
	<g>
		<defs>
			<rect id="SVGID_1_" width="300" height="708.5"/>
		</defs>
		<clipPath id="SVGID_00000157285397731274771270000010820346809879210658_">
			<use xlink:href="#SVGID_1_"  style="overflow:visible;"/>
		</clipPath>
		<g style="clip-path:url(#SVGID_00000157285397731274771270000010820346809879210658_);">
			<g>
				<rect x="119.42" y="0.23" class="st1" width="11.92" height="708.6"/>
				<rect x="126.92" y="0.23" class="st2" width="4.43" height="708.6"/>
				<path class="st3" d="M119.42,553.2l11.92-15.87v14.97l-11.92,15.87V553.2z M119.42,531.3l11.92-15.87v-14.97l-11.92,15.87V531.3
					z M119.42,605.03l11.92-15.87V574.2l-11.92,15.87V605.03z M119.42,641.9l11.92-15.87v-14.97l-11.92,15.87V641.9z M119.42,708.83
					h5.11l6.81-9.07V684.8l-11.92,15.87V708.83z M119.42,678.77l11.92-15.87v-14.97l-11.92,15.87V678.77z M119.42,494.43
					l11.92-15.87v-14.97l-11.92,15.87V494.43z M119.42,310.09l11.92-15.87v-14.97l-11.92,15.87V310.09z M119.42,273.22l11.92-15.87
					v-14.97l-11.92,15.87V273.22z M119.42,236.36l11.92-15.87v-14.97l-11.92,15.87V236.36z M119.42,346.96l11.92-15.87v-14.97
					l-11.92,15.87V346.96z M119.42,420.69l11.92-15.87v-14.97l-11.92,15.87V420.69z M119.42,383.83l11.92-15.87v-14.97l-11.92,15.87
					V383.83z M119.42,457.56l11.92-15.87v-14.97l-11.92,15.87V457.56z M119.42,88.84l11.92-15.87V58l-11.92,15.87V88.84z
					 M119.42,51.97l11.92-15.87V21.14l-11.92,15.87V51.97z M119.42,125.71l11.92-15.87V94.87l-11.92,15.87V125.71z M119.42,162.58
					l11.92-15.87v-14.97l-11.92,15.87V162.58z M119.42,199.44l11.92-15.87V168.6l-11.92,15.87V199.44z M119.42,0.14v14.97
					l11.92-15.87v-14.97L119.42,0.14z"/>
				<g>
					<polygon class="st4" points="126.92,469.49 126.92,484.45 131.35,478.56 131.35,463.59 					"/>
					<polygon class="st4" points="126.92,432.62 126.92,447.58 131.35,441.69 131.35,426.73 					"/>
					<polygon class="st4" points="126.92,506.35 126.92,521.32 131.35,515.42 131.35,500.46 					"/>
					<polygon class="st4" points="126.92,395.75 126.92,410.72 131.35,404.82 131.35,389.86 					"/>
					<polygon class="st4" points="126.92,653.82 126.92,668.79 131.35,662.9 131.35,647.93 					"/>
					<polygon class="st4" points="126.92,358.88 126.92,373.85 131.35,367.96 131.35,352.99 					"/>
					<polygon class="st4" points="131.35,699.76 131.35,684.8 126.92,690.69 126.92,705.66 					"/>
					<polygon class="st4" points="126.92,543.22 126.92,558.19 131.35,552.29 131.35,537.33 					"/>
					<polygon class="st4" points="126.92,616.96 126.92,631.92 131.35,626.03 131.35,611.06 					"/>
					<polygon class="st4" points="126.92,580.09 126.92,595.05 131.35,589.16 131.35,574.2 					"/>
					<polygon class="st4" points="126.92,100.77 126.92,115.73 131.35,109.84 131.35,94.87 					"/>
					<polygon class="st4" points="126.92,63.9 126.92,78.86 131.35,72.97 131.35,58 					"/>
					<polygon class="st4" points="126.92,137.63 126.92,152.6 131.35,146.71 131.35,131.74 					"/>
					<polygon class="st4" points="126.92,27.03 126.92,42 131.35,36.1 131.35,21.14 					"/>
					<polygon class="st4" points="126.92,5.13 130.6,0.23 126.92,0.23 					"/>
					<polygon class="st4" points="126.92,174.5 126.92,189.47 131.35,183.57 131.35,168.61 					"/>
					<polygon class="st4" points="126.92,248.28 126.92,263.25 131.35,257.35 131.35,242.39 					"/>
					<polygon class="st4" points="126.92,285.15 126.92,300.11 131.35,294.22 131.35,279.25 					"/>
					<polygon class="st4" points="126.92,322.02 126.92,336.98 131.35,331.09 131.35,316.12 					"/>
					<polygon class="st4" points="126.92,211.41 126.92,226.38 131.35,220.49 131.35,205.52 					"/>
				</g>
			</g>
			<g>
				<path class="st5" d="M237.13,534.09c0,0,9.39-13.92,31.7-10.86c22.31,3.06,31.09,21.1,22.22,39.4
					c-8.87,18.3-19.62,25.58-17.35,33.85c3.64,13.26,16.05,5.64,16.05,5.64s-0.84,15-14.45,17.3c-20.66,3.5-39.91-16.36-22.3-49.99
					c11.84-22.6,0.31-29.98-11.61-28.68C236.01,541.34,237.13,534.09,237.13,534.09z"/>
				<path class="st6" d="M275.31,619.43c13.6-2.3,14.45-17.3,14.45-17.3s-12.41,7.62-16.05-5.64c-0.74-2.7-0.09-5.3,1.43-8.21
					c-0.36-0.61-0.7-1.27-0.99-1.99c-1.81-4.34-2.53,0.54-6.28,1.08c-3.75,0.54-0.59-3.79-2.11-8.13s-5.35,4.88-8.06,1.63
					c-2.71-3.25,8.06-17.35,9.76-27.82c2.1-12.94-4.16-19.69-12.42-21.35c-6.31-1.26-14.27,3.83-17.69,6.31
					c0.46,1.6,1.55,3.03,4.06,2.76c11.93-1.3,23.45,6.08,11.61,28.68C235.39,603.07,254.65,622.93,275.31,619.43z"/>
				<path class="st5" d="M30.57,449.3c-1.22-1.31-15.78-14.24-10.84-28.37s26.69-2.06,44.36-8.4c17.67-6.35,39.34,12.04,46.61,29
					c7.27,16.96,11.35,56.51,18.24,58.68c0,0-15.91,10.43-30.66-2.6c-14.76-13.03-17.6-33.05-18.34-49.71s-8.66-27.28-21.3-29
					C46.81,417.3,30.57,449.3,30.57,449.3z"/>
				<path class="st3" d="M41.68,427.56c-5.9,5.38-24.48,29.77-34.56,38.95c-10.08,9.18,2.85,29.57,17.39,22.96
					s34.56-15.71,34.56-15.71s11.15,7.68,12.17,27.93c1.01,20.24,0.44,29.19,4.55,42.34l-28.34,22.04
					c-3.83,2.98-6.06,7.51-6.02,12.36c0.06,7.56,3.05,17.96,5.51,26.03c3.96,13,17.19,26.82,33.77,19.88l1.12-24.16
					c0,0-15.41,5.31-18.18-2.03c-3.07-8.11-3.19-16.11-3.19-16.11l38.17-10.67c0,0,33.26,21.65,77.43,16.07
					c0,0-0.23,28.34,40.29,30.22c0,0-47.42,6.27-48.78,35.52l26.65,1.24c0,0-2.87-14.07,15.84-18.37
					c13.95-3.21,34.23-2.49,34.96-18.2c0.86-18.57-16.91-10.35-16.17-26.32c0,0,17.13-8.76,18.32-34.33
					c1.19-25.57-21.97-45.97-71.16-48.26s-49.37-7.72-57.07-24.37S96.87,423.2,74.79,417.8C59.34,414.02,47.58,422.18,41.68,427.56z
					"/>
				<path class="st5" d="M26.4,445.1c-1.22-1.31-11.61-10.04-6.67-24.16s26.69-2.06,44.36-8.4c17.67-6.35,39.34,12.04,46.61,29
					c7.27,16.96,11.35,56.51,18.24,58.68c0,0-15.91,10.43-30.66-2.6c-14.76-13.03-22-49.19-26.37-65.28
					c-5.5-20.26-16.59-14.66-27.08-7.41C39.33,428.72,26.4,445.1,26.4,445.1z"/>
				<path class="st6" d="M98.27,497.62c14.76,13.03,30.66,2.6,30.66,2.6c-2.99-0.94-5.45-8.94-7.88-19.07l0,0
					c-5.86-6.64-3.28,8.61-10.41,3.09c-7.13-5.51-7.6-6.7-14.51-4.63c-6.91,2.08-8.26-8.56-9.3-30.48s-9.99-28.27-16.34-32.04
					c-6.36-3.76-19.71,0.39-26.85,4.8c-7.13,4.41-15.56,6.74-19.46,4.02c-1.95-1.36-2.63-4.88-2.82-8.06
					c-0.66,0.85-1.21,1.87-1.63,3.08c-4.94,14.13,5.44,22.85,6.67,24.16c0,0,12.94-16.38,18.42-20.17
					c10.49-7.25,21.58-12.85,27.08,7.41C76.27,448.43,83.51,484.59,98.27,497.62z"/>
				<path class="st3" d="M54.29,430.76c0,0-8.4-10.81-5.42-18.93l17.99,14.73L54.29,430.76z"/>
				<path class="st7" d="M247.18,557.2c0.22-4.66-0.38-9.15-1.79-13.4c-3.52,11.81-7.52,18.06-21.88,22.99
					c-42.67,14.65-83.35,12.1-116.51-12.44c-22.06-16.32-25.02-37.47-26.49-54.44c-1.47-16.97-8.94-36.97-17.8-42.21
					s-29.23,19.79-40.2,25.3c-6.92,3.48-11.94,3.23-17.6-2.07c3.1,6.99,11.07,12.41,19.61,8.53c14.54-6.61,34.56-15.71,34.56-15.71
					s11.15,7.68,12.17,27.93c1.01,20.24,0.44,29.19,4.55,42.34l-0.13,0.1c2.74,2.23,7.22,6.4,6.17,9.14
					c-1.49,3.9-27.57,13.83-29.69,18.97c-1.73,4.2-3.19,18.8-8.71,19.62c1.04,4.36,2.34,8.74,3.51,12.6
					c3.96,13,17.19,26.82,33.77,19.88l1.12-24.16c0,0-15.41,5.31-18.18-2.03c-3.07-8.11-3.19-16.11-3.19-16.11l38.17-10.67
					c0,0,33.26,21.65,77.43,16.07c0,0-0.23,28.34,40.29,30.22c0,0-47.42,6.27-48.78,35.52l26.65,1.24c0,0-2.87-14.07,15.84-18.37
					c13.95-3.21,34.23-2.49,34.96-18.2c0.86-18.57-16.91-10.35-16.17-26.32C228.86,591.53,245.99,582.77,247.18,557.2z"/>
				<path class="st8" d="M172.82,638.73c-3.01,4.05-4.98,8.82-5.24,14.45l26.65,1.24c0,0-1.75-8.59,6.41-14.4L172.82,638.73z"/>
				<path class="st1" d="M176.19,505.24c-35.44-1.65-43-2.45-48.47-11.75c-1.74,4.7-3.13,7.64-3.37,12.91
					c-1.28,27.59,20.04,50.98,47.63,52.27c25.89,1.2,47.85-17.59,51.54-42.7C211.87,510.22,196.52,506.18,176.19,505.24z"/>
				<path class="st9" d="M213.13,511.54c-1.53,21.02-19.46,37.14-40.64,36.16c-21.53-1-38.17-19.26-37.17-40.79
					c0.11-2.47,0.51-4.85,1.06-7.17c3.71-8.92-5.85-12.59-9.3-6.76c-1.74,4.7-2.48,8.14-2.72,13.41
					c-1.28,27.59,20.04,50.98,47.63,52.27c25.89,1.2,47.85-17.59,51.54-42.7C223.87,508.12,213.75,503.92,213.13,511.54z"/>
				<path class="st5" d="M205.92,509.62c-1.61-0.42-3.24-0.84-4.95-1.21c0.11,6.66-3.13,14-8.66,19.05
					c-4.34,3.97-11.96,8.25-23.55,6.3c-20.6-3.55-21.02-23.27-20.51-30.35c-1.84-0.21-3.45-0.47-4.96-0.73
					c-0.56,7.91-0.16,31.79,24.62,36.05c1.59,0.28,3.17,0.46,4.74,0.53c8.79,0.41,16.85-2.39,23.07-8.07
					C201.93,525.51,205.63,517.32,205.92,509.62z"/>
				<path class="st9" d="M69.2,442.87l0.07-0.02l-5.79-23.77c-1.89-0.65-4.7-1.25-6.42-0.69l5.91,22.28l-0.18,0.13l-13.26-19.03
					c-1.73,1.03-3.32,2.1-4.7,3.17L58.27,444L26,466.77l-8.2-11.6c-1.3,1.49-2.55,2.88-3.78,4.24l7.46,10.56l-0.09,0.07l3.19,4.52
					l0.09-0.07l7.97,11.29c1.72-0.78,3.42-1.55,5.13-2.33l-8.58-12.15l34.36-24.27l-4.47,26.73l3.95,3.96l6.25-34.74L69.2,442.87z"
					/>
				<path class="st8" d="M67.29,601.44l-1.1,23.93c4.38,1.27,9.29,1.15,14.53-1.04l1.12-24.16
					C81.84,600.17,72.76,603.3,67.29,601.44z"/>
			</g>
		</g>
	</g>
	<g>
		<defs>
			<rect id="SVGID_00000120538629463753157940000003128594483873152444_" width="300" height="708.5"/>
		</defs>
		<clipPath id="SVGID_00000031900975151341900710000009814263498426378685_">
			<use xlink:href="#SVGID_00000120538629463753157940000003128594483873152444_"  style="overflow:visible;"/>
		</clipPath>
	</g>
</g>
</svg>
