<?xml version="1.0" encoding="utf-8"?>
<!-- Generator: Adobe Illustrator 26.5.0, SVG Export Plug-In . SVG Version: 6.00 Build 0)  -->
<svg version="1.1" id="Layer_1" xmlns="http://www.w3.org/2000/svg" xmlns:xlink="http://www.w3.org/1999/xlink" x="0px" y="0px"
	 viewBox="0 0 300 708.5" style="enable-background:new 0 0 300 708.5;" xml:space="preserve">
<style type="text/css">
	.st0{clip-path:url(#SVGID_00000134962428947862925340000017343034532673381563_);}
	.st1{fill:#EF4056;}
	.st2{fill:#97263C;}
	.st3{fill:#FFFFFF;}
	.st4{fill:#C6C6C5;}
	.st5{fill:#DAA573;}
	.st6{fill:#BD7F5C;}
	.st7{fill:#ECECEC;}
	.st8{fill:#1D1D1B;stroke:#1D1D1B;stroke-width:0.971;stroke-miterlimit:10;}
	.st9{fill:#6F2033;}
</style>
<g>
	<defs>
		<rect id="SVGID_1_" x="4.5" y="-0.5" width="291" height="709"/>
	</defs>
	<clipPath id="SVGID_00000088111864039849385530000013293002050256927935_">
		<use xlink:href="#SVGID_1_"  style="overflow:visible;"/>
	</clipPath>
	<g style="clip-path:url(#SVGID_00000088111864039849385530000013293002050256927935_);">
		<g>
			<rect x="120.69" y="-2.48" class="st1" width="11.92" height="708.6"/>
			<rect x="128.18" y="-2.48" class="st2" width="4.43" height="708.6"/>
			<path class="st3" d="M120.69,550.48l11.92-15.87v14.97l-11.92,15.87V550.48z M120.69,528.58l11.92-15.87v-14.97l-11.92,15.87
				V528.58z M120.69,602.32l11.92-15.87v-14.97l-11.92,15.87V602.32z M120.69,639.18l11.92-15.87v-14.97l-11.92,15.87V639.18z
				 M120.69,706.11h5.11l6.81-9.07v-14.97l-11.92,15.87V706.11z M120.69,676.05l11.92-15.87v-14.97l-11.92,15.87V676.05z
				 M120.69,491.71l11.92-15.87v-14.97l-11.92,15.87V491.71z M120.69,307.38l11.92-15.87v-14.97l-11.92,15.87V307.38z
				 M120.69,270.51l11.92-15.87v-14.97l-11.92,15.87V270.51z M120.69,233.64l11.92-15.87V202.8l-11.92,15.87V233.64z M120.69,344.24
				l11.92-15.87v-14.97l-11.92,15.87V344.24z M120.69,417.98l11.92-15.87v-14.97l-11.92,15.87V417.98z M120.69,381.11l11.92-15.87
				v-14.97l-11.92,15.87V381.11z M120.69,454.85l11.92-15.87v-14.97l-11.92,15.87V454.85z M120.69,86.13l11.92-15.87V55.29
				l-11.92,15.87V86.13z M120.69,49.26l11.92-15.87V18.42l-11.92,15.87V49.26z M120.69,122.99l11.92-15.87V92.16l-11.92,15.87
				V122.99z M120.69,159.86l11.92-15.87v-14.97l-11.92,15.87V159.86z M120.69,196.73l11.92-15.87v-14.97l-11.92,15.87V196.73z
				 M120.69-2.58v14.97l11.92-15.87v-14.97L120.69-2.58z"/>
			<g>
				<polygon class="st4" points="128.18,466.77 128.18,481.74 132.61,475.84 132.61,460.88 				"/>
				<polygon class="st4" points="128.18,429.9 128.18,444.87 132.61,438.97 132.61,424.01 				"/>
				<polygon class="st4" points="128.18,503.64 128.18,518.6 132.61,512.71 132.61,497.74 				"/>
				<polygon class="st4" points="128.18,393.04 128.18,408 132.61,402.11 132.61,387.14 				"/>
				<polygon class="st4" points="128.18,651.11 128.18,666.07 132.61,660.18 132.61,645.21 				"/>
				<polygon class="st4" points="128.18,356.17 128.18,371.13 132.61,365.24 132.61,350.28 				"/>
				<polygon class="st4" points="132.61,697.05 132.61,682.08 128.18,687.98 128.18,702.94 				"/>
				<polygon class="st4" points="128.18,540.51 128.18,555.47 132.61,549.58 132.61,534.61 				"/>
				<polygon class="st4" points="128.18,614.24 128.18,629.21 132.61,623.31 132.61,608.35 				"/>
				<polygon class="st4" points="128.18,577.37 128.18,592.34 132.61,586.45 132.61,571.48 				"/>
				<polygon class="st4" points="128.18,98.05 128.18,113.02 132.61,107.12 132.61,92.16 				"/>
				<polygon class="st4" points="128.18,61.18 128.18,76.15 132.61,70.25 132.61,55.29 				"/>
				<polygon class="st4" points="128.18,134.92 128.18,149.88 132.61,143.99 132.61,129.02 				"/>
				<polygon class="st4" points="128.18,24.31 128.18,39.28 132.61,33.39 132.61,18.42 				"/>
				<polygon class="st4" points="128.18,2.41 131.86,-2.48 128.18,-2.48 				"/>
				<polygon class="st4" points="128.18,171.79 128.18,186.75 132.61,180.86 132.61,165.89 				"/>
				<polygon class="st4" points="128.18,245.57 128.18,260.53 132.61,254.64 132.61,239.67 				"/>
				<polygon class="st4" points="128.18,282.43 128.18,297.4 132.61,291.5 132.61,276.54 				"/>
				<polygon class="st4" points="128.18,319.3 128.18,334.27 132.61,328.37 132.61,313.41 				"/>
				<polygon class="st4" points="128.18,208.7 128.18,223.66 132.61,217.77 132.61,202.8 				"/>
			</g>
		</g>
		<g>
			<path class="st5" d="M238.4,531.38c0,0,9.39-13.92,31.7-10.86c22.31,3.06,31.09,21.1,22.22,39.4
				c-8.87,18.3-19.62,25.58-17.35,33.85c3.64,13.26,16.05,5.64,16.05,5.64s-0.84,15-14.45,17.3c-20.66,3.5-39.91-16.36-22.3-49.99
				c11.84-22.6,0.31-29.98-11.61-28.68C237.28,538.63,238.4,531.38,238.4,531.38z"/>
			<path class="st6" d="M276.57,616.71c13.6-2.3,14.45-17.3,14.45-17.3s-12.41,7.62-16.05-5.64c-0.74-2.7-0.09-5.3,1.43-8.21
				c-0.36-0.61-0.7-1.27-0.99-1.99c-1.81-4.34-2.53,0.54-6.28,1.08c-3.75,0.54-0.59-3.79-2.11-8.13c-1.52-4.34-5.35,4.88-8.06,1.63
				c-2.71-3.25,8.06-17.35,9.76-27.82c2.1-12.94-4.16-19.69-12.42-21.35c-6.31-1.26-14.27,3.83-17.69,6.31
				c0.46,1.6,1.55,3.03,4.06,2.76c11.93-1.3,23.45,6.08,11.61,28.68C236.66,600.35,255.91,620.21,276.57,616.71z"/>
			<path class="st5" d="M31.84,446.59c-1.22-1.31-15.78-14.24-10.84-28.37c4.94-14.13,26.69-2.06,44.36-8.4
				c17.67-6.35,39.34,12.04,46.61,29c7.27,16.96,11.35,56.51,18.24,58.68c0,0-15.91,10.43-30.66-2.6
				c-14.76-13.03-17.6-33.05-18.34-49.71c-0.74-16.66-8.66-27.28-21.3-29C48.07,414.58,31.84,446.59,31.84,446.59z"/>
			<path class="st3" d="M42.95,424.85c-5.9,5.38-24.48,29.77-34.56,38.95c-10.08,9.18,2.85,29.57,17.39,22.96
				c14.54-6.61,34.56-15.71,34.56-15.71s11.15,7.68,12.17,27.93c1.01,20.24,0.44,29.19,4.55,42.34l-28.34,22.04
				c-3.83,2.98-6.06,7.51-6.02,12.36c0.06,7.56,3.05,17.96,5.51,26.03c3.96,13,17.19,26.82,33.77,19.88l1.12-24.16
				c0,0-15.41,5.31-18.18-2.03c-3.07-8.11-3.19-16.11-3.19-16.11l38.17-10.67c0,0,33.26,21.65,77.43,16.07
				c0,0-0.23,28.34,40.29,30.22c0,0-47.42,6.27-48.78,35.52l26.65,1.24c0,0-2.87-14.07,15.84-18.37
				c13.95-3.21,34.23-2.49,34.96-18.2c0.86-18.57-16.91-10.35-16.17-26.32c0,0,17.13-8.76,18.32-34.33
				c1.19-25.57-21.97-45.97-71.16-48.26c-49.19-2.29-49.37-7.72-57.07-24.37c-7.7-16.65-22.07-61.37-44.15-66.77
				C60.6,411.3,48.85,419.47,42.95,424.85z"/>
			<path class="st5" d="M27.66,442.38c-1.22-1.31-11.61-10.04-6.67-24.16c4.94-14.13,26.69-2.06,44.36-8.4
				c17.67-6.35,39.34,12.04,46.61,29c7.27,16.96,11.35,56.51,18.24,58.68c0,0-15.91,10.43-30.66-2.6
				c-14.76-13.03-22-49.19-26.37-65.28c-5.5-20.26-16.59-14.66-27.08-7.41C40.6,426.01,27.66,442.38,27.66,442.38z"/>
			<path class="st6" d="M99.53,494.9c14.76,13.03,30.66,2.6,30.66,2.6c-2.99-0.94-5.45-8.94-7.88-19.07c0,0,0,0,0,0
				c-5.86-6.64-3.28,8.61-10.41,3.09c-7.13-5.51-7.6-6.7-14.51-4.63c-6.91,2.08-8.26-8.56-9.3-30.48
				c-1.04-21.92-9.99-28.27-16.34-32.04c-6.36-3.76-19.71,0.39-26.85,4.8s-15.56,6.74-19.46,4.02c-1.95-1.36-2.63-4.88-2.82-8.06
				c-0.66,0.85-1.21,1.87-1.63,3.08c-4.94,14.13,5.44,22.85,6.67,24.16c0,0,12.94-16.38,18.42-20.17
				c10.49-7.25,21.58-12.85,27.08,7.41C77.53,445.71,84.77,481.88,99.53,494.9z"/>
			<path class="st3" d="M55.56,428.04c0,0-8.4-10.81-5.42-18.93l17.99,14.73L55.56,428.04z"/>
			<path class="st7" d="M248.44,554.49c0.22-4.66-0.38-9.15-1.79-13.4c-3.52,11.81-7.52,18.06-21.88,22.99
				c-42.67,14.65-83.35,12.1-116.51-12.44c-22.06-16.32-25.02-37.47-26.49-54.44c-1.47-16.97-8.94-36.97-17.8-42.21
				c-8.86-5.24-29.23,19.79-40.2,25.3c-6.92,3.48-11.94,3.23-17.6-2.07c3.1,6.99,11.07,12.41,19.61,8.53
				c14.54-6.61,34.56-15.71,34.56-15.71s11.15,7.68,12.17,27.93c1.01,20.24,0.44,29.19,4.55,42.34l-0.13,0.1
				c2.74,2.23,7.22,6.4,6.17,9.14c-1.49,3.9-27.57,13.83-29.69,18.97c-1.73,4.2-3.19,18.8-8.71,19.62c1.04,4.36,2.34,8.74,3.51,12.6
				c3.96,13,17.19,26.82,33.77,19.88l1.12-24.16c0,0-15.41,5.31-18.18-2.03c-3.07-8.11-3.19-16.11-3.19-16.11l38.17-10.67
				c0,0,33.26,21.65,77.43,16.07c0,0-0.23,28.34,40.29,30.22c0,0-47.42,6.27-48.78,35.52l26.65,1.24c0,0-2.87-14.07,15.84-18.37
				c13.95-3.21,34.23-2.49,34.96-18.2c0.86-18.57-16.91-10.35-16.17-26.32C230.13,588.82,247.26,580.06,248.44,554.49z"/>
			<path class="st8" d="M174.08,636.01c-3.01,4.05-4.98,8.82-5.24,14.45l26.65,1.24c0,0-1.75-8.59,6.41-14.4L174.08,636.01z"/>
			<path class="st1" d="M177.46,502.52c-35.44-1.65-43-2.45-48.47-11.75c-1.74,4.7-3.13,7.64-3.37,12.91
				c-1.28,27.59,20.04,50.98,47.63,52.27c25.89,1.2,47.85-17.59,51.54-42.7C213.14,507.5,197.79,503.47,177.46,502.52z"/>
			<path class="st9" d="M214.39,508.83c-1.53,21.02-19.46,37.14-40.64,36.16c-21.53-1-38.17-19.26-37.17-40.79
				c0.11-2.47,0.51-4.85,1.06-7.17c3.71-8.92-5.85-12.59-9.3-6.76c-1.74,4.7-2.48,8.14-2.72,13.41
				c-1.28,27.59,20.04,50.98,47.63,52.27c25.89,1.2,47.85-17.59,51.54-42.7C225.14,505.41,215.02,501.2,214.39,508.83z"/>
			<path class="st5" d="M207.19,506.9c-1.61-0.42-3.24-0.84-4.95-1.21c0.11,6.66-3.13,14-8.66,19.05
				c-4.34,3.97-11.96,8.25-23.55,6.3c-20.6-3.55-21.02-23.27-20.51-30.35c-1.84-0.21-3.45-0.47-4.96-0.73
				c-0.56,7.91-0.16,31.79,24.62,36.05c1.59,0.28,3.17,0.46,4.74,0.53c8.79,0.41,16.85-2.39,23.07-8.07
				C203.2,522.8,206.89,514.61,207.19,506.9z"/>
			<path class="st9" d="M70.47,440.15l0.07-0.02l-5.79-23.77c-1.89-0.65-4.7-1.25-6.42-0.69l5.91,22.28l-0.18,0.13l-13.26-19.03
				c-1.73,1.03-3.32,2.1-4.7,3.17l13.44,19.06l-32.26,22.78l-8.2-11.6c-1.3,1.49-2.55,2.88-3.78,4.24l7.46,10.56l-0.09,0.07
				l3.19,4.52l0.09-0.07l7.97,11.29c1.72-0.78,3.42-1.55,5.13-2.33l-8.58-12.15l34.36-24.27l-4.47,26.73L64.3,475l6.25-34.74
				L70.47,440.15z"/>
			<path class="st8" d="M68.55,598.73l-1.1,23.93c4.38,1.27,9.29,1.15,14.53-1.04l1.12-24.16C83.1,597.46,74.03,600.59,68.55,598.73
				z"/>
		</g>
	</g>
</g>
</svg>
