<svg xmlns="http://www.w3.org/2000/svg" xmlns:xlink="http://www.w3.org/1999/xlink" width="392.121" height="245.083" viewBox="0 0 392.121 245.083"><defs><linearGradient id="a" x1="0.5" y1="0.971" x2="0.5" y2="-0.373" gradientUnits="objectBoundingBox"><stop offset="0.025" stop-color="#2b1815"/><stop offset="0.377" stop-color="#52151b"/><stop offset="0.628" stop-color="#8f1729"/><stop offset="0.879" stop-color="#c81935"/><stop offset="1" stop-color="#de1a3b"/></linearGradient></defs><path d="M569.68,735.746a13.509,13.509,0,0,0-3.817-8.126c-14.059-14.684-45.3,5.624-45.3,5.624.938-25.931-9.06-45.613-21.869-50.612s-16.558,6.561-16.558,6.561c-6.873-29.368-39.99-22.807-39.99-22.807s7.229-11.938-.937-22.494c-12.809-16.558-37.178-1.25-37.178-1.25-2.812-5.936-11.559-10-24.525-6.759a54.7,54.7,0,0,0-32.636,24.028c1.613-8.069-6.635-15.242-17.215-12.014s-11.3,10.4-11.3,10.4c-9.684-7.711-27.436-11.118-40.347-1.973S275,675.446,275,675.446c-21.869-8.123-23.744,10.622-23.744,10.622-3.436-6.56-22.494-7.81-28.742,5.624a18.9,18.9,0,0,0,3.749,22.182s-20-5.936-26.868.312.312,12.185.312,12.185-19.682,2.5-21.869,19.682a23.284,23.284,0,0,0-.179,2.624h-.014V879.821H569.767V735.743Z" transform="translate(-177.646 -634.738)" fill="url(#a)"/></svg>