<svg id="Componente_5_1" data-name="Componente 5 – 1" xmlns="http://www.w3.org/2000/svg" xmlns:xlink="http://www.w3.org/1999/xlink" width="695.86" height="245.084" viewBox="0 0 695.86 245.084">
  <defs>
    <clipPath id="clip-path">
      <rect id="Retângulo_100" data-name="Retângulo 100" width="695.86" height="245.084" transform="translate(860.858 256.769)" fill="none"/>
    </clipPath>
    <linearGradient id="linear-gradient" x1="0.5" y1="0.971" x2="0.5" y2="-0.373" gradientUnits="objectBoundingBox">
      <stop offset="0.025" stop-color="#2b1815"/>
      <stop offset="0.377" stop-color="#52151b"/>
      <stop offset="0.628" stop-color="#8f1729"/>
      <stop offset="0.879" stop-color="#c81935"/>
      <stop offset="1" stop-color="#de1a3b"/>
    </linearGradient>
  </defs>
  <g id="Grupo_163" data-name="Grupo 163" transform="translate(-860.858 -256.769)" clip-path="url(#clip-path)">
    <path id="Caminho_823" data-name="Caminho 823" d="M1556.631,357.778a13.517,13.517,0,0,0-3.817-8.126c-14.059-14.684-45.3,5.623-45.3,5.623.937-25.93-9.06-45.613-21.869-50.612s-16.558,6.561-16.558,6.561c-6.874-29.367-39.99-22.806-39.99-22.806s7.229-11.938-.937-22.495c-12.81-16.558-37.178-1.249-37.178-1.249-2.812-5.936-11.56-10-24.526-6.76a54.708,54.708,0,0,0-32.636,24.029c1.614-8.069-6.635-15.242-17.214-12.014s-11.3,10.4-11.3,10.4c-9.683-7.71-27.435-11.118-40.346-1.972s-3.009,19.121-3.009,19.121c-21.87-8.123-23.744,10.622-23.744,10.622-3.437-6.561-22.494-7.81-28.743,5.624a18.9,18.9,0,0,0,3.749,22.181s-19.994-5.935-26.868.313.313,12.184.313,12.184-19.683,2.5-21.87,19.683a23.543,23.543,0,0,0-.179,2.624h-.013V501.853h392.121V357.775Z" fill="url(#linear-gradient)"/>
    <path id="Caminho_824" data-name="Caminho 824" d="M1252.892,431.046a13.512,13.512,0,0,0-3.817-8.126c-14.059-14.684-45.3,5.623-45.3,5.623.938-25.93-9.06-45.613-21.869-50.611s-16.558,6.56-16.558,6.56c-6.873-29.367-39.99-22.806-39.99-22.806s7.229-11.938-.937-22.494c-12.809-16.558-37.178-1.25-37.178-1.25-2.812-5.936-11.559-10-24.525-6.76a54.708,54.708,0,0,0-32.637,24.029c1.614-8.069-6.634-15.242-17.214-12.014s-11.3,10.4-11.3,10.4c-9.684-7.71-27.436-11.118-40.347-1.972s-3.009,19.121-3.009,19.121c-21.869-8.123-23.744,10.622-23.744,10.622-3.436-6.56-22.494-7.81-28.742,5.624a18.9,18.9,0,0,0,3.749,22.182s-19.995-5.936-26.868.312.312,12.184.312,12.184-19.682,2.5-21.869,19.683a23.269,23.269,0,0,0-.179,2.624h-.014V575.121h392.121V431.043Z" transform="translate(0 -41)" fill="url(#linear-gradient)"/>
  </g>
</svg>
