<?xml version="1.0" encoding="utf-8"?>
<!-- Generator: Adobe Illustrator 26.5.0, SVG Export Plug-In . SVG Version: 6.00 Build 0)  -->
<svg version="1.1" id="Layer_1" xmlns="http://www.w3.org/2000/svg" xmlns:xlink="http://www.w3.org/1999/xlink" x="0px" y="0px"
	 viewBox="0 0 274 280" style="enable-background:new 0 0 274 280;" xml:space="preserve">
<style type="text/css">
	.st0{fill:#ECECEC;}
	.st1{fill:#DAA573;}
	.st2{fill:#EF4056;}
	.st3{fill:#FFFFFF;}
</style>
<g>
	<polygon class="st0" points="21.36,277.27 40.97,277.27 136.99,102.5 233.03,277.27 252.64,277.27 146.79,84.65 146.88,84.49 
		146.63,84.35 142.16,76.22 136.99,79.06 131.81,76.22 127.35,84.35 127.09,84.49 127.18,84.65 	"/>
	<g>
		<path class="st1" d="M147.51,24.96c0-0.58-0.47-1.06-1.06-1.06h-5.7c-0.58,0-1.06,0.47-1.06,1.06v4.54c0,0.58-0.47,1.06-1.06,1.06
			h-3.27c-0.59,0-1.06-0.47-1.06-1.06v-4.54c0-0.58-0.47-1.06-1.06-1.06h-5.7c-0.58,0-1.06,0.47-1.06,1.06v4.45
			c2.67,2.73,6.39,4.44,10.51,4.44c4.13,0,7.84-1.71,10.51-4.44V24.96z"/>
		<rect x="136.37" y="11.96" class="st1" width="1.25" height="20.31"/>
		<path class="st2" d="M149.38,16.25c-3.14-3.22-7.52-5.23-12.38-5.23c-4.86,0-9.23,2.01-12.38,5.23H149.38z"/>
	</g>
	<g>
		<path class="st1" d="M147.51,262.2c0-0.58-0.47-1.06-1.06-1.06h-5.7c-0.58,0-1.06,0.47-1.06,1.06v4.54c0,0.58-0.47,1.06-1.06,1.06
			h-3.27c-0.59,0-1.06-0.47-1.06-1.06v-4.54c0-0.58-0.47-1.06-1.06-1.06h-5.7c-0.58,0-1.06,0.47-1.06,1.06v4.45
			c2.67,2.73,6.39,4.44,10.51,4.44c4.13,0,7.84-1.71,10.51-4.44V262.2z"/>
		<rect x="136.37" y="249.2" class="st1" width="1.25" height="20.31"/>
		<path class="st2" d="M149.38,253.49c-3.14-3.22-7.52-5.23-12.38-5.23c-4.86,0-9.23,2.01-12.38,5.23H149.38z"/>
	</g>
	<g>
		<path class="st1" d="M28.89,143.58c0-0.58-0.47-1.06-1.06-1.06h-5.7c-0.58,0-1.06,0.47-1.06,1.06v4.54c0,0.58-0.47,1.06-1.06,1.06
			h-3.27c-0.59,0-1.06-0.47-1.06-1.06v-4.54c0-0.58-0.47-1.06-1.06-1.06h-5.7c-0.58,0-1.06,0.47-1.06,1.06v4.45
			c2.67,2.73,6.39,4.44,10.51,4.44c4.13,0,7.84-1.71,10.51-4.44V143.58z"/>
		<rect x="17.76" y="130.58" class="st1" width="1.25" height="20.31"/>
		<path class="st2" d="M30.76,134.87c-3.14-3.22-7.52-5.23-12.38-5.23c-4.86,0-9.23,2.01-12.38,5.23L30.76,134.87z"/>
	</g>
	<g>
		<path class="st1" d="M266.13,143.58c0-0.58-0.47-1.06-1.06-1.06h-5.7c-0.58,0-1.06,0.47-1.06,1.06v4.54
			c0,0.58-0.47,1.06-1.06,1.06h-3.27c-0.59,0-1.06-0.47-1.06-1.06v-4.54c0-0.58-0.47-1.06-1.06-1.06h-5.7
			c-0.58,0-1.06,0.47-1.06,1.06v4.45c2.67,2.73,6.39,4.44,10.51,4.44c4.13,0,7.84-1.71,10.51-4.44V143.58z"/>
		<rect x="254.99" y="130.58" class="st1" width="1.25" height="20.31"/>
		<path class="st2" d="M267.99,134.87c-3.14-3.22-7.52-5.23-12.38-5.23c-4.86,0-9.23,2.01-12.38,5.23L267.99,134.87z"/>
	</g>
	<g>
		<path class="st1" d="M63.64,59.7c0-0.58-0.47-1.06-1.06-1.06l-5.7,0c-0.58,0-1.06,0.47-1.06,1.06v4.54c0,0.58-0.47,1.06-1.06,1.06
			h-3.27c-0.59,0-1.06-0.47-1.06-1.06V59.7c0-0.58-0.47-1.06-1.06-1.06h-5.7c-0.58,0-1.06,0.47-1.06,1.06v4.45
			c2.67,2.73,6.39,4.44,10.51,4.44c4.13,0,7.84-1.71,10.51-4.44V59.7z"/>
		<rect x="52.5" y="46.7" class="st1" width="1.25" height="20.31"/>
		<path class="st2" d="M65.5,51c-3.14-3.22-7.52-5.23-12.38-5.23c-4.86,0-9.23,2.01-12.38,5.23H65.5z"/>
	</g>
	<g>
		<path class="st1" d="M231.39,227.45c0-0.58-0.47-1.06-1.06-1.06h-5.7c-0.58,0-1.06,0.47-1.06,1.06v4.54
			c0,0.58-0.47,1.06-1.06,1.06h-3.27c-0.59,0-1.06-0.47-1.06-1.06v-4.54c0-0.58-0.47-1.06-1.06-1.06l-5.7,0
			c-0.58,0-1.06,0.47-1.06,1.06v4.45c2.67,2.73,6.39,4.44,10.51,4.44c4.13,0,7.84-1.71,10.51-4.44V227.45z"/>
		<rect x="220.25" y="214.45" class="st1" width="1.25" height="20.31"/>
		<path class="st2" d="M233.25,218.75c-3.14-3.22-7.52-5.23-12.38-5.23c-4.86,0-9.23,2.01-12.38,5.23L233.25,218.75z"/>
	</g>
	<g>
		<path class="st1" d="M63.64,227.45c0-0.58-0.47-1.06-1.06-1.06h-5.7c-0.58,0-1.06,0.47-1.06,1.06l0,4.54
			c0,0.58-0.47,1.06-1.06,1.06h-3.27c-0.59,0-1.06-0.47-1.06-1.06v-4.54c0-0.58-0.47-1.06-1.06-1.06l-5.7,0
			c-0.58,0-1.06,0.47-1.06,1.06v4.45c2.67,2.73,6.39,4.44,10.51,4.44c4.13,0,7.84-1.71,10.51-4.44V227.45z"/>
		<rect x="52.5" y="214.45" class="st1" width="1.25" height="20.31"/>
		<path class="st2" d="M65.5,218.75c-3.14-3.22-7.52-5.23-12.38-5.23c-4.86,0-9.23,2.01-12.38,5.23L65.5,218.75z"/>
	</g>
	<g>
		<path class="st1" d="M231.39,59.7c0-0.58-0.47-1.06-1.06-1.06l-5.7,0c-0.58,0-1.06,0.47-1.06,1.06v4.54
			c0,0.58-0.47,1.06-1.06,1.06h-3.27c-0.59,0-1.06-0.47-1.06-1.06V59.7c0-0.58-0.47-1.06-1.06-1.06h-5.7
			c-0.58,0-1.06,0.47-1.06,1.06v4.45c2.67,2.73,6.39,4.44,10.51,4.44c4.13,0,7.84-1.71,10.51-4.44V59.7z"/>
		<rect x="220.25" y="46.7" class="st1" width="1.25" height="20.31"/>
		<path class="st2" d="M233.25,51c-3.14-3.22-7.52-5.23-12.38-5.23c-4.86,0-9.23,2.01-12.38,5.23H233.25z"/>
	</g>
	<path class="st3" d="M136.99,3.73c-67.15,0-121.58,54.43-121.58,121.58c0,67.15,54.43,121.58,121.58,121.58
		c67.15,0,121.58-54.43,121.58-121.58C258.58,58.16,204.14,3.73,136.99,3.73z M253.14,125.31c0,15.21-2.93,29.74-8.24,43.05
		l-104.35-43.22l104.23-43.17C250.16,95.36,253.14,109.98,253.14,125.31z M243.73,79.46l-104.22,43.17l43.14-104.14
		C210.01,30.19,231.97,52.11,243.73,79.46z M180.14,17.45L137,121.59L93.86,17.44c13.34-5.34,27.89-8.28,43.13-8.28
		C152.24,9.16,166.8,12.11,180.14,17.45z M91.35,18.48l43.14,104.15L30.26,79.45C42.02,52.11,63.98,30.19,91.35,18.48z M29.22,81.96
		l104.24,43.18L29.09,168.36c-5.32-13.31-8.25-27.84-8.25-43.05C20.85,109.98,23.82,95.35,29.22,81.96z M30.13,170.87l104.37-43.23
		L91.23,232.08C63.82,220.32,41.84,198.31,30.13,170.87z M93.74,233.12L137,128.68l43.26,104.44c-13.37,5.37-27.97,8.33-43.27,8.33
		C121.7,241.45,107.11,238.49,93.74,233.12z M182.77,232.08l-43.26-104.44l104.35,43.22C232.15,198.3,210.18,220.31,182.77,232.08z"
		/>
	<g>
		
			<ellipse transform="matrix(0.7071 -0.7071 0.7071 0.7071 -48.4822 133.5709)" class="st2" cx="136.99" cy="125.31" rx="61.82" ry="61.82"/>
		
			<ellipse transform="matrix(0.9732 -0.2298 0.2298 0.9732 -25.1253 34.8268)" class="st1" cx="136.99" cy="125.31" rx="45.58" ry="45.58"/>
		
			<ellipse transform="matrix(0.9732 -0.2298 0.2298 0.9732 -25.1253 34.8267)" class="st2" cx="136.99" cy="125.31" rx="40.65" ry="40.65"/>
		<g>
			<polygon class="st1" points="136.99,118.38 156.59,104.33 142.53,123.92 156.59,143.52 136.99,129.46 117.4,143.52 
				131.45,123.92 117.4,104.33 			"/>
			<polygon class="st3" points="140.91,120 164.7,123.92 140.91,127.84 136.99,162.71 133.07,127.84 109.29,123.92 133.07,120 
				136.99,87.9 			"/>
		</g>
	</g>
</g>
</svg>
